<svg width="23" height="22" viewBox="0 0 23 22" fill="none" xmlns="http://www.w3.org/2000/svg">
<path d="M22.0271 20.4478L16.4886 14.9807C17.9979 13.1586 18.74 10.8335 18.5613 8.48647C18.3827 6.13941 17.2969 3.94992 15.5287 2.37087C13.7605 0.791825 11.4451 -0.0559616 9.06142 0.00286919C6.67772 0.0617 4.40812 1.02265 2.72207 2.68695C1.03602 4.35124 0.0625065 6.59156 0.00290669 8.9445C-0.0566932 11.2974 0.802176 13.583 2.40186 15.3284C4.00155 17.0738 6.21966 18.1455 8.5974 18.3218C10.9751 18.4982 13.3306 17.7656 15.1765 16.2758L20.7151 21.7429C20.8901 21.9097 21.1245 22.0021 21.3678 22C21.611 21.9979 21.8438 21.9016 22.0158 21.7317C22.1878 21.5619 22.2854 21.3322 22.2875 21.092C22.2897 20.8519 22.1961 20.6205 22.0271 20.4478ZM9.30857 16.5158C7.84042 16.5158 6.40524 16.086 5.18452 15.2809C3.9638 14.4758 3.01236 13.3314 2.45052 11.9925C1.88869 10.6536 1.74168 9.18033 2.02811 7.75897C2.31453 6.33761 3.02151 5.03201 4.05965 4.00727C5.09779 2.98252 6.42045 2.28466 7.86039 2.00194C9.30033 1.71921 10.7929 1.86432 12.1493 2.4189C13.5057 2.97349 14.665 3.91265 15.4806 5.11762C16.2963 6.32259 16.7317 7.73925 16.7317 9.18846C16.7295 11.1311 15.9467 12.9936 14.555 14.3672C13.1634 15.7409 11.2766 16.5136 9.30857 16.5158Z" fill="#EC762A"/>
</svg>
